<?xml version="1.0" standalone="no"?>
<!DOCTYPE svg PUBLIC "-//W3C//DTD SVG 20010904//EN"
 "http://www.w3.org/TR/2001/REC-SVG-20010904/DTD/svg10.dtd">
<svg version="1.0" xmlns="http://www.w3.org/2000/svg"
 width="808.000000pt" height="808.000000pt" viewBox="0 0 808.000000 808.000000"
 preserveAspectRatio="xMidYMid meet">
<metadata>
Created by potrace 1.14, written by Peter Selinger 2001-2017
</metadata>
<g transform="translate(0.000000,808.000000) scale(0.100000,-0.100000)"
fill="#000000" stroke="none">
<path d="M1977 7458 c-401 -690 -1970 -3416 -1970 -3423 0 -8 1052 -1837 1860
-3233 l135 -232 2001 2 2000 3 999 1730 998 1729 -115 201 c-63 110 -513 889
-999 1730 l-883 1530 -2001 3 -2000 2 -25 -42z m2222 -818 c82 -29 198 -108
256 -173 25 -29 66 -92 91 -142 79 -160 90 -326 34 -489 -10 -29 -146 -275
-303 -547 -156 -272 -396 -687 -532 -924 -359 -622 -1082 -1841 -1129 -1903
-70 -91 -190 -171 -311 -208 -90 -27 -269 -25 -355 5 -193 67 -336 215 -406
421 -15 43 -19 83 -18 185 0 114 3 138 25 196 14 36 210 378 436 760 331 560
1014 1740 1408 2434 109 190 197 286 326 351 104 52 165 64 299 60 87 -3 131
-9 179 -26z m1523 -2290 c600 -1012 712 -1214 744 -1331 22 -84 22 -234 0
-318 -60 -224 -221 -391 -442 -457 -71 -22 -245 -24 -314 -5 -77 21 -203 88
-256 135 -29 25 -74 76 -101 113 -61 84 -947 1592 -947 1613 0 8 152 281 338
605 370 644 377 657 381 653 1 -2 270 -455 597 -1008z"/>
</g>
</svg>
